<svg style="display:none"><defs><svg id="op3-icons-bold-remove-2" xmlns="http://www.w3.org/2000/svg" viewBox="0 0 32 32"><path fill="currentColor" d="M8 3c-.25 0-.5.1-.7.3l-4 4c-.4.4-.4 1 0 1.4l7.3 7.3-7.3 7.3c-.4.4-.4 1 0 1.4l4 4c.4.4 1 .4 1.4 0l7.3-7.3 7.3 7.3c.2.2.5.3.7.3s.5-.1.7-.3l4-4c.4-.4.4-1 0-1.4L21.4 16l7.3-7.3c.4-.4.4-1 0-1.4l-4-4c-.4-.4-1-.4-1.4 0L16 10.6 8.7 3.3C8.5 3.1 8.25 3 8 3z"/></svg><svg id="op3-icons-check-bold-2" xmlns="http://www.w3.org/2000/svg" viewBox="0 0 32 32"><path fill="currentColor" d="M27 4L12 17l-7-5-4 3 11 12L31 6l-4-2z"/></svg><svg id="op3-icons-link-71-1" xmlns="http://www.w3.org/2000/svg" viewBox="0 0 32 32"><path fill="currentColor" d="M7 9c-3.845 0-7 3.155-7 7s3.155 7 7 7h5c3.845 0 7-3.155 7-7v-1h-2v1c0 2.755-2.245 5-5 5H7c-2.755 0-5-2.245-5-5s2.245-5 5-5h5V9H7zm13 0c-3.845 0-7 3.155-7 7v1h2v-1c0-2.755 2.245-5 5-5h5c2.755 0 5 2.245 5 5s-2.245 5-5 5h-5v2h5c3.845 0 7-3.155 7-7s-3.155-7-7-7h-5z"/></svg><svg id="op3-icons-menu-bold-2" xmlns="http://www.w3.org/2000/svg" viewBox="0 0 32 32"><path fill="currentColor" d="M2 3c-.6 0-1 .4-1 1v4c0 .6.4 1 1 1h28c.6 0 1-.4 1-1V4c0-.6-.4-1-1-1H2zm0 10c-.6 0-1 .4-1 1v4c0 .6.4 1 1 1h28c.6 0 1-.4 1-1v-4c0-.6-.4-1-1-1H2zm0 10c-.6 0-1 .4-1 1v4c0 .6.4 1 1 1h28c.6 0 1-.4 1-1v-4c0-.6-.4-1-1-1H2z"/></svg><svg id="op3-icons-small-down" xmlns="http://www.w3.org/2000/svg" viewBox="0 0 32 32"><path fill="currentColor" d="M10 11.586L8.586 13 16 20.414 23.414 13 22 11.586l-6 6-6-6z"/></svg><svg id="op3-icons-small-right" xmlns="http://www.w3.org/2000/svg" viewBox="0 0 32 32"><path fill="currentColor" d="M13 8.586L11.586 10l6 6-6 6L13 23.414 20.414 16 13 8.586z"/></svg><svg id="op3-icons-small-up" xmlns="http://www.w3.org/2000/svg" viewBox="0 0 32 32"><path fill="currentColor" d="M16 11.586L8.586 19 10 20.414l6-6 6 6L23.414 19 16 11.586z"/></svg><svg id="op3-icons-spaceship-1" xmlns="http://www.w3.org/2000/svg" viewBox="0 0 32 32"><path fill="currentColor" d="M31.062.943l-1.115.059c-5.63.294-10.171 2.01-13.781 4.264A11.715 11.715 0 003.705 7.928a11.666 11.666 0 00-1.801 2.342l-.393.668 4.598 4.597c-1.138 1.86-1.676 3.15-1.676 3.15l-.246.614 8.518 8.518.615-.252s1.283-.543 3.133-1.686l4.61 4.61.667-.393a11.666 11.666 0 002.342-1.8c3.379-3.38 4.26-8.319 2.639-12.517 2.247-3.605 3.97-8.128 4.287-13.723l.064-1.113zM28.796 3.2c-.29 2.847-.95 5.372-1.843 7.606L21.166 5.02c2.238-.888 4.771-1.543 7.63-1.82zM19.21 5.891l6.867 6.867c-4.23 8.516-11.75 12.136-12.941 12.66L6.578 18.86c.515-1.19 4.099-8.75 12.631-12.97zm-7.545.609c.8-.027 1.6.05 2.386.219-3.05 2.302-5.273 4.907-6.818 7.11l-3.145-3.143c.32-.464.624-.936 1.032-1.344h.002A9.686 9.686 0 0111.664 6.5zM17.5 11c-1.922 0-3.5 1.579-3.5 3.5s1.578 3.5 3.5 3.5 3.5-1.579 3.5-3.5-1.58-3.5-3.5-3.5zm0 2c.84 0 1.5.66 1.5 1.5s-.66 1.5-1.5 1.5-1.5-.66-1.5-1.5.66-1.5 1.5-1.5zm7.767 4.89a9.693 9.693 0 01-2.61 8.99c-.407.409-.88.712-1.343 1.032l-3.162-3.162c2.2-1.557 4.808-3.794 7.115-6.86zM4 24c-2.197 0-4 1.803-4 4v4h4c2.197 0 4-1.803 4-4s-1.803-4-4-4zm0 2c1.117 0 2 .883 2 2s-.883 2-2 2H2v-2c0-1.117.883-2 2-2z"/></svg><svg id="op3-icons-spaceship-2" xmlns="http://www.w3.org/2000/svg" viewBox="0 0 32 32"><path fill="currentColor" d="M29.947 1.002C11.36 1.972 4.5 18.519 4.433 18.686c-.149.372-.062.797.22 1.08l7.583 7.58a1 1 0 001.086.219c.166-.068 16.626-7.008 17.676-25.508a1.001 1.001 0 00-1.051-1.055zm-17.693 3.49a11.656 11.656 0 00-8.549 3.434 11.762 11.762 0 00-1.8 2.344.998.998 0 00.154 1.214l2.613 2.612c1.742-2.727 4.63-6.43 8.926-9.493-.448-.062-.896-.1-1.344-.11zM17.5 12c1.378 0 2.5 1.122 2.5 2.5S18.878 17 17.5 17 15 15.878 15 14.5s1.122-2.5 2.5-2.5zm9.89 6.342c-3.07 4.316-6.774 7.225-9.497 8.976l2.623 2.623a.995.995 0 001.216.155 11.833 11.833 0 002.342-1.801 11.64 11.64 0 003.317-9.953zM4 24c-2.206 0-4 1.794-4 4v4h4c2.206 0 4-1.794 4-4s-1.794-4-4-4z"/></svg></defs></svg>